<?xml version="1.0" encoding="utf-8"?>
<!-- Generator: Adobe Illustrator 14.0.0, SVG Export Plug-In . SVG Version: 6.00 Build 43363)  -->
<!DOCTYPE svg PUBLIC "-//W3C//DTD SVG 1.1//EN" "http://www.w3.org/Graphics/SVG/1.1/DTD/svg11.dtd">
<svg version="1.1" id="Calque_1" xmlns="http://www.w3.org/2000/svg" xmlns:xlink="http://www.w3.org/1999/xlink" x="0px" y="0px"
	 width="231.297px" height="76.336px" viewBox="0 0 231.297 76.336" enable-background="new 0 0 231.297 76.336"
	 xml:space="preserve">
<g>
	<g>
		<path d="M65.266,26.742c-1.326,0.174-2.429,0.519-3.308,1.053c-0.88,0.534-1.76,1.384-2.64,2.549
			c-0.88,1.165-2.176,3.05-3.887,5.611c-3.435,5.228-6.87,10.293-10.305,15.167c0,3.869,0,7.738,0,11.607
			c0,1.326,0.139,2.405,0.416,3.234c0.277,0.83,0.922,1.543,1.935,2.118c1.012,0.574,2.603,0.962,4.773,1.083
			c0,1.109,0,2.218,0,3.327c-8.22-0.456-16.44-1.895-24.66-4.694c0-1.109,0-2.218,0-3.327c2.049,0.696,3.598,0.947,4.646,0.843
			c1.048-0.105,1.735-0.528,2.061-1.24c0.325-0.713,0.488-1.806,0.488-3.276c0-3.652,0-7.304,0-10.956
			c-4.098-7.85-8.196-16.01-12.293-24.528c-0.097-0.185-0.199-0.389-0.308-0.615c-0.108-0.226-0.188-0.373-0.235-0.442
			c-1.061-2.179-2.007-3.732-2.838-4.645s-2.056-1.789-3.67-2.691c0-1.109,0-2.218,0-3.327c7.654,3.939,15.307,6.538,22.961,8.102
			c0,1.109,0,2.218,0,3.327c-1.157-0.237-2.074-0.411-2.748-0.498c-0.675-0.088-1.224-0.033-1.646,0.171
			c-0.422,0.205-0.633,0.643-0.633,1.317c0,0.458,0.145,1.052,0.434,1.778c0.289,0.726,0.952,2.116,1.989,4.145
			c2.543,4.901,5.086,9.685,7.629,14.361c2.422-3.477,4.845-7.051,7.268-10.712c1.567-2.374,2.351-4.166,2.351-5.321
			c0-1.52-0.495-2.492-1.482-2.938c-0.989-0.447-2.363-0.738-4.122-0.92c0-1.109,0-2.218,0-3.327
			c5.942,0.617,11.884,0.682,17.826,0.336C65.266,24.524,65.266,25.633,65.266,26.742z"/>
		<path d="M93.217,52.434c-7.413,1.6-14.825,2.908-22.237,3.648c0.023,0.456,0.09,1.425,0.199,2.909
			c0.108,1.484,0.446,2.98,1.012,4.486s1.542,2.717,2.929,3.614c1.386,0.896,3.248,1.179,5.586,0.805
			c1.277-0.204,2.82-0.789,4.628-1.771c1.808-0.982,3.375-2.545,4.701-4.671c0.94,0.447,1.88,0.889,2.82,1.326
			c-2.845,5.157-7.364,8.398-13.559,9.35c-2.772,0.421-5.297,0.342-7.575-0.215c-2.278-0.556-4.212-1.514-5.804-2.836
			c-1.591-1.322-2.808-2.948-3.652-4.848C61.421,62.332,61,60.267,61,58.049c0-2.918,0.705-5.628,2.115-8.168
			s3.429-4.622,6.057-6.321c2.627-1.7,5.628-2.771,9.003-3.263c3.302-0.481,6.093-0.267,8.371,0.727
			c2.278,0.991,3.959,2.486,5.044,4.525C92.674,47.586,93.217,49.878,93.217,52.434z M84.25,50.881c0-5.505-2.169-7.827-6.509-7.195
			c-2.097,0.3-3.706,1.251-4.827,2.897c-1.121,1.645-1.742,3.693-1.862,6.165C75.451,52.306,79.85,51.665,84.25,50.881z"/>
		<path d="M135.919,50.229c0,1.832-0.374,3.479-1.121,4.941c-0.748,1.464-1.753,2.652-3.019,3.571s-2.694,1.575-4.285,1.97
			c-2.025,0.503-3.712,0.456-5.062-0.153c-1.35-0.608-2.157-1.539-2.422-2.797c-4.026,4.263-8.076,6.929-12.149,7.954
			c-2.603,0.655-4.736,0.543-6.4-0.323c-1.663-0.867-2.495-2.344-2.495-4.417c0-1.711,0.446-3.364,1.338-4.961
			c0.891-1.598,2.199-3.146,3.923-4.654c1.723-1.507,3.779-2.98,6.165-4.418c2.387-1.438,5.363-3.08,8.931-4.913
			c0-0.687,0-1.374,0-2.061c0-1.711-0.404-2.951-1.211-3.72c-0.808-0.769-2.296-0.873-4.465-0.316
			c-1.856,0.476-3.194,1.203-4.014,2.182c-0.82,0.98-1.362,2.285-1.627,3.918c-0.193,1.158-0.549,2.157-1.067,2.998
			c-0.519,0.841-1.597,1.467-3.236,1.868c-1.012,0.247-1.904,0.173-2.675-0.222c-0.772-0.394-1.157-1.159-1.157-2.292
			c0-2.243,1.217-4.478,3.652-6.735c2.435-2.256,6.171-4.024,11.209-5.322c5.303-1.367,8.949-1.407,10.938-0.121
			c1.989,1.285,2.983,3.429,2.983,6.417c0,3.809,0,7.617,0,11.426c0,1.446,0.036,2.499,0.109,3.155
			c0.072,0.657,0.271,1.121,0.596,1.39c0.326,0.27,0.837,0.319,1.537,0.15c0.626-0.152,1.175-0.609,1.645-1.372
			s0.705-1.601,0.705-2.518C134.136,50.642,135.027,50.433,135.919,50.229z M119.323,54.61c0-2.989,0-5.978,0-8.967
			c-4.58,2.625-7.491,4.79-8.732,6.49c-1.242,1.702-1.862,3.214-1.862,4.54c0,1.109,0.337,1.917,1.012,2.419
			c0.675,0.504,1.627,0.6,2.856,0.284c1.326-0.339,2.495-0.917,3.507-1.732C117.117,56.83,118.189,55.818,119.323,54.61z"/>
		<path d="M176.055,44.97c0,1.833-0.374,3.389-1.121,4.68c-0.748,1.291-1.753,2.252-3.019,2.901
			c-1.266,0.65-2.694,1.017-4.285,1.116c-2.025,0.126-3.712-0.2-5.062-1.019c-1.35-0.818-2.157-1.861-2.422-3.158
			c-4.026,3.694-8.076,5.935-12.149,6.683c-2.603,0.479-4.736,0.282-6.4-0.634c-1.663-0.914-2.495-2.396-2.495-4.471
			c0-1.711,0.446-3.358,1.338-4.937c0.891-1.578,2.199-3.091,3.923-4.521c1.723-1.428,3.779-2.78,6.165-4.021
			c2.387-1.239,5.363-2.584,8.931-3.929c0-0.688,0-1.374,0-2.062c0-1.71-0.404-3.008-1.211-3.882
			c-0.808-0.873-2.296-1.168-4.465-0.835c-1.856,0.286-3.194,0.904-4.014,1.818c-0.819,0.916-1.363,2.184-1.627,3.798
			c-0.193,1.145-0.549,2.12-1.067,2.928c-0.519,0.809-1.597,1.367-3.236,1.698c-1.012,0.205-1.904,0.101-2.675-0.314
			c-0.772-0.414-1.157-1.186-1.157-2.319c0-2.24,1.217-4.464,3.652-6.624c2.435-2.151,6.171-3.725,11.209-4.476
			c5.303-0.781,8.949-0.192,10.938,1.437c1.989,1.636,2.983,3.98,2.983,6.967c0,3.809,0,7.617,0,11.426
			c0,1.446,0.036,2.505,0.109,3.177c0.072,0.671,0.271,1.173,0.596,1.507s0.838,0.485,1.537,0.46
			c0.626-0.021,1.175-0.362,1.645-1.023c0.471-0.661,0.705-1.446,0.705-2.363C174.271,44.966,175.163,44.963,176.055,44.97z
			 M159.458,46.244c0-2.989,0-5.979,0-8.968c-4.58,2.003-7.491,3.933-8.732,5.523c-1.242,1.598-1.862,3.069-1.862,4.393
			c0,1.109,0.337,1.94,1.012,2.497c0.675,0.558,1.627,0.732,2.856,0.536c1.326-0.211,2.495-0.661,3.507-1.357
			C157.253,48.172,158.325,47.296,159.458,46.244z"/>
		<path d="M217.962,62.625c-6.195-3.188-12.39-5.499-18.585-7.093c0-1.109,0-2.218,0-3.327c1.663,0.429,2.808,0.476,3.435,0.073
			c0.627-0.401,0.94-1.164,0.94-2.297c0-4.05,0-8.099,0-12.149c0-1.205-0.078-2.314-0.235-3.328
			c-0.157-1.013-0.572-2.016-1.247-2.999c-0.675-0.981-1.712-1.671-3.109-2.027c-1.134-0.289-2.284-0.25-3.453,0.116
			c-1.17,0.367-2.067,1-2.694,1.874c-0.675,0.987-1.103,1.983-1.283,2.977c-0.181,0.995-0.271,2.215-0.271,3.662
			c0,2.073,0,4.146,0,6.219c0,1.688,0.066,2.934,0.199,3.739c0.132,0.805,0.506,1.481,1.121,2.037
			c0.614,0.557,1.633,0.964,3.055,1.268c0,1.109,0,2.218,0,3.327c-6.315-1.353-12.631-1.992-18.947-2.089c0-1.109,0-2.218,0-3.327
			c1.615,0.025,2.802-0.091,3.562-0.393c0.759-0.3,1.229-0.77,1.41-1.422c0.181-0.651,0.271-1.736,0.271-3.254
			c0-10.112,0-20.225,0-30.337c0-1.808-0.289-3.04-0.867-3.687c-0.579-0.645-2.038-1.052-4.375-1.115c0-1.085,0-2.169,0-3.254
			c4.857-0.962,9.714-1.603,14.572-1.845c0,8.135,0,16.271,0,24.407c1.422-1.262,2.898-2.246,4.43-2.942
			c1.53-0.694,3.657-0.716,6.382,0.083c1.253,0.368,2.507,0.948,3.761,1.74c1.253,0.792,2.38,1.741,3.381,2.83
			c1,1.089,1.729,2.188,2.188,3.272c0.987,2.176,1.482,4.69,1.482,7.51c0,3.604,0,7.208,0,10.812c0,2.025,0.259,3.524,0.777,4.506
			c0.518,0.986,1.886,1.968,4.104,3.106C217.962,60.407,217.962,61.516,217.962,62.625z"/>
	</g>
</g>
</svg>
